<?xml version="1.0" encoding="utf-8"?>
<!-- Generator: Adobe Illustrator 24.3.0, SVG Export Plug-In . SVG Version: 6.00 Build 0)  -->
<svg version="1.1" id="Layer_1" xmlns="http://www.w3.org/2000/svg" xmlns:xlink="http://www.w3.org/1999/xlink" x="0px" y="0px"
	 viewBox="0 0 179.467 80.467" style="enable-background:new 0 0 179.467 80.467;" xml:space="preserve">
<style type="text/css">
	.st0{fill:#38074F;}
</style>
<g>
	<polygon class="st0" points="174.992,28.153 174.992,0 146.839,0 	"/>
	<path class="st0" d="M2.569,10.316H0V8.837h2.569V3.309h1.635v5.528h5.099v1.479H4.204V21.02c0,5.139,3.076,5.8,4.633,5.8
		c0.544,0,0.896-0.078,0.896-0.078v1.518c0,0-0.39,0.078-0.973,0.078c-2.025,0-6.189-0.739-6.189-7.201V10.316z"/>
	<path class="st0" d="M21.447,8.253c5.566,0,10.082,4.399,10.082,10.082c0,5.8-4.516,10.316-10.082,10.316
		c-5.567,0-10.082-4.515-10.082-10.316C11.365,12.651,15.88,8.253,21.447,8.253z M21.447,27.054c4.633,0,8.37-3.776,8.37-8.72
		c0-4.827-3.737-8.486-8.37-8.486s-8.37,3.659-8.37,8.486C13.078,23.278,16.815,27.054,21.447,27.054z"/>
	<path class="st0" d="M42.904,32.675c4.165,0,6.489-1.986,6.489-6.695v-0.171c0-0.895,0.156-1.596,0.156-1.596h-0.078
		c-1.168,2.374-3.309,3.97-6.541,3.97c-5.06,0-8.642-3.97-8.642-10.043s3.309-9.887,8.37-9.887c5.528,0,6.774,3.815,6.774,3.815
		h0.078c0,0-0.117-0.272-0.117-0.739V8.72h1.635v17.259c0,5.955-3.375,8.291-8.007,8.291c-2.141,0-4.205-0.545-6.112-1.518
		l0.778-1.441C37.687,31.312,40.101,32.675,42.904,32.675z M49.432,18.14c0-6.267-2.959-8.291-6.774-8.291
		c-4.165,0-6.656,3.036-6.656,8.291c0,5.255,2.88,8.447,7.046,8.447C46.473,26.587,49.432,24.446,49.432,18.14z"/>
	<path class="st0" d="M64.611,8.253c5.294,0,7.941,4.165,7.941,8.875c0,0.428-0.078,1.051-0.078,1.051h-15.61
		c0,5.644,3.815,8.875,8.331,8.875c3.737,0,6.034-2.452,6.034-2.452l0.896,1.362c0,0-2.725,2.686-6.929,2.686
		c-5.488,0-10.043-3.971-10.043-10.16C55.152,11.912,59.629,8.253,64.611,8.253z M70.839,16.661
		c-0.194-4.749-3.037-6.891-6.268-6.891c-3.58,0-6.889,2.336-7.591,6.891H70.839z"/>
	<path class="st0" d="M77.298,10.316h-2.569V8.837h2.569V3.309h1.636v5.528h5.099v1.479h-5.099V21.02c0,5.139,3.075,5.8,4.631,5.8
		c0.546,0,0.896-0.078,0.896-0.078v1.518c0,0-0.389,0.078-0.973,0.078c-2.023,0-6.189-0.739-6.189-7.201V10.316z"/>
	<path class="st0" d="M87.534,0.934h1.635v11.211c0,0.896-0.156,1.596-0.156,1.596h0.078c0.662-1.83,3.387-5.489,8.253-5.489
		c5.06,0,6.423,2.997,6.423,7.591v12.34h-1.636V16.427c0-3.386-0.428-6.578-4.787-6.578c-3.659,0-6.891,2.569-7.864,6.189
		c-0.233,0.818-0.311,1.713-0.311,2.647v9.498h-1.635V0.934z"/>
	<path class="st0" d="M117.076,8.253c5.294,0,7.942,4.165,7.942,8.875c0,0.428-0.078,1.051-0.078,1.051h-15.61
		c0,5.644,3.815,8.875,8.331,8.875c3.737,0,6.034-2.452,6.034-2.452l0.894,1.362c0,0-2.725,2.686-6.928,2.686
		c-5.489,0-10.043-3.971-10.043-10.16C107.618,11.912,112.093,8.253,117.076,8.253z M123.304,16.661
		c-0.194-4.749-3.036-6.891-6.267-6.891c-3.581,0-6.889,2.336-7.591,6.891H123.304z"/>
	<path class="st0" d="M129.141,8.72h1.635v3.698c0,0.895-0.156,1.596-0.156,1.596h0.078c0.973-2.997,3.154-5.45,6.228-5.45
		c0.583,0,1.129,0.117,1.129,0.117v1.635c0,0-0.467-0.078-0.896-0.078c-3.036,0-4.944,2.569-5.799,5.45
		c-0.429,1.362-0.585,2.802-0.585,4.087v8.408h-1.635V8.72z"/>
	<path class="st0" d="M25.216,71.137c3.304,0,6.201-1.275,6.201-4.752V65.11c0-0.348,0.058-1.101,0.058-1.101h-0.115
		c-1.566,2.086-3.594,3.13-6.954,3.13c-8.752,0-13.04-7.418-13.04-14.953c0-7.65,4.404-14.719,12.982-14.719
		c5.447,0,7.708,3.014,7.708,3.014h0.174c0,0-0.058-0.29-0.058-0.695v-1.623h11.359v26.542c0,10.895-8.055,15.763-17.386,15.763
		c-5.564,0-10.663-1.97-12.17-2.723l3.245-8.635C17.219,69.108,20.811,71.137,25.216,71.137z M31.648,52.244
		c0-4.404-1.97-5.332-4.173-5.332c-2.723,0-3.941,2.145-3.941,5.042c0,3.13,1.217,5.738,4.173,5.738
		C29.679,57.692,31.648,56.59,31.648,52.244z"/>
	<path class="st0" d="M48.707,38.162h11.475v4.346c0,0.986-0.175,2.086-0.175,2.086h0.175c1.101-3.651,4.578-6.954,8.634-6.954
		c0.695,0,1.276,0.116,1.276,0.116v11.648c0,0-0.869-0.174-2.028-0.174c-2.667,0-5.448,0.986-6.607,3.999
		c-0.464,1.042-0.637,2.202-0.637,3.592v11.185H48.707V38.162z"/>
	<path class="st0" d="M89.886,37.466c9.678,0,17.212,5.969,17.212,15.705c0,9.678-7.535,15.531-17.156,15.531
		c-9.678,0-17.211-5.854-17.211-15.531C72.732,43.435,80.265,37.466,89.886,37.466z M89.943,59.257c2.84,0,5.1-2.203,5.1-6.085
		c0-3.941-2.26-6.259-5.1-6.259c-2.897,0-5.157,2.318-5.157,6.259C84.786,57.054,87.046,59.257,89.943,59.257z"/>
	<path class="st0" d="M110.617,38.162h12.113v17.096c0,2.202,0.754,3.072,2.376,3.072c3.072,0,4.346-3.13,4.346-6.144V38.162h12.113
		v29.846h-11.475v-2.028c0-0.986,0.117-2.029,0.117-2.029h-0.117c-1.391,2.55-4.693,4.752-9.041,4.752
		c-5.852,0-10.432-2.723-10.432-10.895V38.162z"/>
	<path class="st0" d="M146.839,38.162h11.127v1.391c0,0.985-0.057,1.796-0.057,1.796h0.115c0,0,2.608-3.883,8.345-3.883
		c7.997,0,13.097,6.259,13.097,15.647c0,9.331-5.564,15.59-13.387,15.59c-4.81,0-7.128-3.014-7.128-3.014h-0.115
		c0,0,0.115,1.043,0.115,2.55v11.359h-12.113V38.162z M162.951,59.198c2.55,0,4.346-2.26,4.346-6.085
		c0-3.883-1.739-6.142-4.404-6.142c-2.492,0-4.231,2.202-4.231,6.201C158.662,56.649,160.111,59.198,162.951,59.198z"/>
</g>
</svg>
